<?xml version="1.0" standalone="no"?>
<!DOCTYPE svg PUBLIC "-//W3C//DTD SVG 20010904//EN"
 "http://www.w3.org/TR/2001/REC-SVG-20010904/DTD/svg10.dtd">
<svg version="1.0" xmlns="http://www.w3.org/2000/svg"
 width="512.000000pt" height="512.000000pt" viewBox="0 0 512.000000 512.000000"
 preserveAspectRatio="xMidYMid meet">

<g transform="translate(0.000000,512.000000) scale(0.100000,-0.100000)"
fill="#000000" stroke="none">
<path d="M2350 5113 c-169 -13 -415 -62 -572 -114 -247 -82 -442 -178 -653
-320 -373 -251 -661 -580 -860 -984 -91 -185 -136 -305 -185 -499 -50 -199
-70 -343 -77 -561 -34 -1082 612 -2061 1620 -2459 509 -201 1110 -231 1627
-81 466 136 877 388 1197 735 459 498 697 1155 670 1850 -11 270 -69 570 -153
785 -92 235 -244 501 -394 690 -35 44 -122 139 -194 210 -220 219 -401 348
-691 490 -302 149 -557 222 -884 255 -95 9 -345 11 -451 3z m244 -425 c14 -40
34 -98 45 -128 l18 -55 141 0 c78 0 142 -2 142 -5 0 -3 -49 -41 -110 -85 -60
-44 -109 -84 -109 -90 0 -5 17 -68 39 -140 21 -71 38 -131 36 -132 -1 -2 -54
33 -116 77 -63 44 -120 78 -126 76 -7 -3 -60 -39 -118 -80 -58 -42 -106 -70
-106 -64 0 6 16 65 35 131 20 66 35 126 33 133 -2 7 -52 49 -111 92 -60 44
-104 82 -99 86 5 3 70 5 145 3 l135 -2 44 127 c23 71 46 128 49 128 4 0 19
-33 33 -72z m1087 -418 c-22 -68 -39 -125 -38 -125 1 -1 56 -41 122 -91 l119
-89 -151 -3 -152 -3 -39 -102 c-22 -56 -43 -112 -47 -124 -3 -13 -9 -23 -13
-23 -4 0 -29 56 -56 125 l-49 124 -145 3 -146 3 115 89 c74 58 113 94 111 105
-2 8 -19 65 -38 125 -19 60 -33 110 -31 112 2 2 53 -26 114 -61 62 -36 118
-65 125 -65 7 1 63 32 123 69 61 38 111 66 112 62 2 -3 -15 -62 -36 -131z
m-2141 70 c14 -9 51 -31 82 -49 l57 -32 116 70 c63 38 115 67 115 63 0 -4 -16
-56 -35 -117 -19 -60 -35 -117 -35 -126 0 -9 45 -54 99 -100 l100 -84 -134 -3
-134 -3 -21 -57 c-12 -31 -33 -90 -48 -129 -24 -65 -42 -92 -42 -63 0 5 -18
64 -41 130 l-41 119 -135 3 -135 3 101 85 c55 47 101 92 101 100 0 8 -16 66
-35 129 -19 62 -35 116 -35 118 0 5 51 -25 100 -57z m2533 -627 l86 -101 68
15 c38 9 97 24 133 34 36 10 66 17 67 16 1 -1 -32 -51 -73 -111 -41 -61 -74
-115 -74 -120 0 -6 32 -57 71 -114 39 -57 69 -105 67 -107 -2 -2 -62 9 -135
24 l-131 27 -88 -108 c-49 -59 -92 -108 -96 -108 -5 0 -8 63 -8 140 l0 141
-115 56 c-63 31 -112 59 -110 63 2 4 56 26 120 50 l117 43 -2 121 c-3 151 -2
162 8 151 5 -6 48 -56 95 -112z m-2923 79 c0 -10 5 -68 11 -128 7 -77 15 -112
26 -121 9 -7 65 -29 124 -50 60 -21 109 -41 109 -44 0 -4 -56 -31 -125 -59
l-125 -53 -1 -71 c-1 -39 -4 -102 -8 -140 l-6 -69 -84 107 c-46 58 -87 106
-92 106 -4 0 -62 -13 -130 -29 -68 -17 -124 -29 -126 -28 -1 2 30 53 68 116
l70 113 -69 101 c-38 56 -72 107 -75 113 -4 7 31 2 86 -11 51 -12 111 -26 134
-29 46 -8 30 -23 161 146 40 51 52 58 52 30z m1161 -904 c45 -13 48 -24 22
-105 -15 -47 -20 -53 -38 -48 -11 4 -44 12 -72 18 -129 26 -232 -65 -233 -204
0 -102 39 -176 109 -206 45 -19 139 -18 187 2 20 8 38 14 40 13 1 -2 5 -35 9
-75 l7 -71 -38 -12 c-22 -7 -77 -14 -124 -17 -71 -4 -95 -1 -141 16 -149 56
-220 167 -221 341 0 174 86 296 245 345 53 17 197 19 248 3z m1362 -4 c63 -21
140 -93 171 -158 71 -149 46 -350 -56 -455 -79 -82 -238 -114 -352 -71 -71 27
-139 87 -172 152 -34 66 -49 180 -36 258 33 186 149 288 328 290 39 0 91 -7
117 -16z m-2730 -76 c99 -325 171 -567 174 -588 l5 -25 -90 3 -90 3 -6 34 c-4
18 -13 56 -22 84 l-15 51 -87 0 -87 0 -17 -81 c-9 -45 -19 -83 -22 -86 -5 -5
-166 -7 -170 -2 -3 3 98 360 178 632 l17 57 103 0 104 0 25 -82z m391 -145 c7
-245 14 -294 49 -318 44 -31 153 -11 173 32 5 10 11 128 14 263 l5 245 80 0
80 0 0 -246 0 -246 -35 -69 c-41 -81 -92 -118 -184 -135 -110 -20 -240 18
-292 86 -47 63 -54 107 -54 372 l0 243 79 0 79 0 6 -227z m1557 185 c1 -24 2
-54 3 -68 1 -25 0 -25 -84 -28 l-85 -3 1 -274 1 -275 -84 0 -83 0 0 275 0 275
-75 0 c-72 0 -75 1 -75 24 0 13 -3 44 -6 70 l-7 46 247 0 246 0 1 -42z m239
-303 l0 -345 -85 0 -85 0 0 345 0 345 85 0 85 0 0 -345z m1085 213 c44 -73
103 -176 130 -230 l50 -98 -3 230 -4 230 76 0 76 0 0 -345 0 -345 -27 0 c-16
0 -51 -3 -79 -6 l-51 -6 -111 193 c-60 107 -118 211 -128 232 -10 20 -20 37
-24 37 -3 0 -2 -48 2 -107 5 -60 7 -162 6 -228 l-3 -120 -80 0 c-70 0 -80 2
-79 18 1 9 2 166 3 347 l1 330 83 0 82 -1 80 -131z m-134 -902 c41 -49 77 -94
80 -98 3 -5 65 4 137 20 75 16 128 24 124 17 -4 -6 -35 -52 -69 -102 -35 -51
-63 -98 -63 -105 0 -7 29 -60 64 -118 35 -58 62 -107 61 -109 -3 -2 -194 40
-247 55 -11 3 -42 -24 -98 -88 -45 -51 -86 -94 -91 -96 -4 -2 -10 54 -11 125
l-3 128 -118 51 c-64 28 -120 53 -123 56 -2 3 52 25 121 48 l125 43 0 46 c0
25 3 90 7 144 5 77 9 95 18 85 7 -7 45 -53 86 -102z m-2786 -242 l130 -42 -70
-32 c-38 -17 -96 -43 -129 -58 l-59 -26 5 -128 c3 -70 2 -128 -2 -128 -4 0
-44 43 -90 95 -46 52 -90 95 -99 95 -9 0 -68 -16 -131 -34 -63 -18 -116 -32
-118 -31 -2 2 27 49 63 106 37 56 69 108 72 115 2 7 -28 60 -67 119 -39 59
-70 109 -67 111 3 3 60 -9 127 -26 84 -21 125 -28 130 -20 4 6 42 52 86 102
l79 91 5 -134 5 -133 130 -42z m2248 -350 l44 -129 141 -5 141 -5 -90 -75
c-50 -41 -99 -83 -110 -92 -19 -16 -19 -18 20 -150 21 -73 38 -134 36 -136 -2
-2 -55 31 -119 74 l-115 76 -118 -75 c-64 -42 -118 -75 -120 -74 -1 1 14 56
33 122 19 66 34 127 34 136 0 8 -45 54 -100 100 -55 46 -100 87 -100 92 0 4
53 7 118 7 64 0 126 3 138 6 16 4 29 33 64 140 24 73 48 130 52 126 5 -5 28
-66 51 -138z m-1818 -4 l48 -130 133 0 c74 0 134 -4 134 -8 0 -5 -45 -46 -100
-93 -55 -46 -100 -89 -100 -95 0 -6 18 -69 41 -139 22 -70 39 -129 37 -130 -2
-2 -57 32 -122 75 -65 44 -124 76 -130 73 -6 -4 -57 -40 -114 -81 -57 -41
-105 -72 -107 -70 -2 1 12 59 31 127 19 69 34 132 34 141 0 9 -48 54 -106 100
l-107 85 132 7 c72 3 137 8 145 11 7 3 30 62 51 131 22 69 42 126 46 126 4 0
28 -58 54 -130z m725 -293 c57 -39 109 -70 115 -70 5 0 61 34 124 76 62 43
116 77 118 77 3 0 2 -8 -2 -17 -7 -20 -75 -250 -75 -256 0 -2 47 -39 105 -81
58 -43 103 -82 100 -87 -4 -5 -43 -9 -88 -10 -45 0 -104 -4 -131 -7 -44 -6
-51 -10 -59 -37 -5 -16 -27 -77 -50 -134 l-40 -104 -21 54 c-12 30 -35 91 -51
135 l-28 82 -81 6 c-44 4 -109 7 -144 8 -34 0 -61 5 -60 9 2 4 51 44 110 88
l107 81 -15 52 c-15 50 -47 160 -60 202 -7 22 -14 25 126 -67z"/>
<path d="M3490 2747 c-84 -42 -116 -234 -57 -341 64 -117 192 -112 248 9 27
58 26 201 -1 254 -29 59 -74 91 -123 91 -23 0 -53 -6 -67 -13z"/>
<path d="M811 2747 c-1 -5 -13 -62 -27 -128 -15 -66 -25 -122 -22 -125 3 -3
30 -4 60 -2 l53 3 -31 130 c-18 72 -32 126 -33 122z"/>
</g>
</svg>
